<svg width="22" height="26" viewBox="0 0 22 26" fill="none" xmlns="http://www.w3.org/2000/svg">
<path d="M9.92594 14.5118C9.74352 14.4271 9.56729 14.3306 9.39017 14.2342C8.86148 13.9458 8.34784 13.6312 7.85191 13.2869C7.40735 12.9777 6.97962 12.6479 6.57137 12.2909C6.30481 12.0575 6.04534 11.8159 5.79915 11.5608C5.33245 11.0786 4.9056 10.5622 4.5372 9.99794C4.10326 9.33366 3.757 8.62611 3.52232 7.86358C3.40808 7.49404 3.32129 7.11728 3.26373 6.73421C3.22388 6.46832 3.19731 6.20062 3.18403 5.93113C3.17251 5.70579 3.17252 5.48046 3.17783 5.25603C3.18138 5.08748 3.19288 4.91983 3.20883 4.75218C3.21237 4.71343 3.21059 4.70982 3.17074 4.70622C2.91747 4.68098 2.66508 4.65664 2.4118 4.63141C2.21255 4.61158 2.01329 4.59085 1.81404 4.57102C1.80784 4.57102 1.80164 4.57012 1.79544 4.56921C1.74231 4.56561 1.74231 4.56651 1.73699 4.62239C1.70069 5.02348 1.69006 5.42458 1.70157 5.82657C1.70777 6.0474 1.72459 6.26732 1.74585 6.48725C1.77064 6.74503 1.80783 7.00101 1.85389 7.25518C1.90525 7.5364 1.97079 7.81491 2.04783 8.08982C2.1603 8.48821 2.29844 8.87848 2.46139 9.25885C2.65002 9.6996 2.87053 10.1232 3.11938 10.5315C3.3824 10.9633 3.67464 11.3734 3.99168 11.7655C4.15993 11.9737 4.3344 12.1756 4.51683 12.3711C4.72317 12.5929 4.93393 12.8092 5.15355 13.0174C5.57775 13.4194 6.02409 13.7934 6.4899 14.145C7.06907 14.5812 7.67392 14.9769 8.29914 15.3401C8.45323 15.4294 8.61086 15.5141 8.76672 15.6006C8.78089 15.6087 8.79772 15.6132 8.80746 15.6286C8.80569 15.652 8.78443 15.6502 8.77115 15.6547C8.4913 15.7439 8.2097 15.8269 7.92631 15.9035C7.5889 15.9945 7.24884 16.0747 6.90612 16.145C6.61831 16.2036 6.32961 16.2532 6.03913 16.2946C5.7956 16.3289 5.55118 16.3541 5.30587 16.3776C5.23414 16.3848 5.16153 16.3884 5.0898 16.392C4.84626 16.4037 4.60184 16.4127 4.35831 16.4064C4.08998 16.3992 3.82165 16.3821 3.55509 16.3478C3.24071 16.3073 2.93075 16.2451 2.62788 16.1522C2.14878 16.0053 1.70246 15.7908 1.30926 15.4708C1.26941 15.4384 1.26586 15.4384 1.23575 15.4762C0.950596 15.8314 0.66456 16.1856 0.379402 16.5407C0.367004 16.5569 0.356369 16.5759 0.336 16.584V16.6092C0.356369 16.6471 0.39179 16.6705 0.424557 16.6966C1.01701 17.1644 1.68474 17.4736 2.4056 17.6701C2.76426 17.7674 3.12912 17.8332 3.49664 17.8738C3.69589 17.8954 3.89515 17.9098 4.09618 17.9197C4.30517 17.9297 4.51417 17.9297 4.72228 17.9279C4.93925 17.9252 5.15532 17.9098 5.37229 17.8945C5.72741 17.8702 6.08076 17.8296 6.43234 17.7755C7.22493 17.6539 8.00512 17.4736 8.77469 17.2483C9.15018 17.1383 9.52123 17.013 9.89141 16.885C9.96934 16.858 9.96934 16.8589 9.97466 16.9409C9.99679 17.2825 10.0083 17.625 10.0331 17.9666C10.0623 18.3695 10.0951 18.7715 10.1332 19.1735C10.189 19.7576 10.2598 20.3407 10.3404 20.9221C10.421 21.5098 10.5166 22.0956 10.6229 22.6797C10.7318 23.2737 10.8523 23.8649 10.9895 24.4526C11.0515 24.7167 11.1126 24.9808 11.1844 25.2431C11.1923 25.2737 11.1967 25.3053 11.2207 25.3287H11.2579C11.2667 25.3035 11.2906 25.3062 11.3101 25.3008C11.6023 25.216 11.8946 25.1322 12.1868 25.0475C12.3259 25.0069 12.4649 24.9664 12.6039 24.9258C12.6473 24.9132 12.6473 24.9123 12.6358 24.8708C12.5322 24.4878 12.4428 24.1002 12.3577 23.7126C12.2736 23.3286 12.1939 22.9438 12.1257 22.5571C12.0832 22.3146 12.0354 22.074 11.9947 21.8315C11.9486 21.5557 11.9034 21.2799 11.8654 21.0032C11.8415 20.8265 11.814 20.6499 11.7901 20.4723C11.768 20.3119 11.7485 20.1514 11.729 19.991C11.706 19.8008 11.6829 19.6115 11.6626 19.4214C11.6422 19.2294 11.6227 19.0365 11.605 18.8436C11.5837 18.6174 11.5643 18.3911 11.5457 18.1649C11.535 18.0306 11.5271 17.8963 11.5191 17.762C11.5032 17.4889 11.4881 17.2158 11.4731 16.9427C11.4713 16.9112 11.4704 16.8796 11.4713 16.8481C11.4713 16.8066 11.4748 16.8039 11.5138 16.8174C11.6209 16.8553 11.7281 16.8931 11.8361 16.931C12.3312 17.1031 12.8315 17.2546 13.3381 17.388C13.7065 17.4844 14.0767 17.5709 14.4495 17.6439C14.8002 17.7124 15.1535 17.7692 15.5086 17.8134C15.8044 17.8503 16.1002 17.8774 16.3978 17.8954C16.7139 17.9152 17.0301 17.9207 17.3462 17.908C17.6535 17.8954 17.9608 17.8711 18.2663 17.8278C18.6746 17.7701 19.0758 17.6818 19.4681 17.5529C20.057 17.3591 20.6025 17.0779 21.0958 16.6939C21.1206 16.675 21.1445 16.6552 21.1684 16.6354C21.2082 16.6029 21.2091 16.602 21.1772 16.5614C21.0958 16.4587 21.0125 16.3559 20.9302 16.2532C20.7282 16.0026 20.5263 15.752 20.3244 15.5015C20.3218 15.4979 20.3191 15.4952 20.3165 15.4916C20.2722 15.4375 20.2731 15.4375 20.2199 15.4807C19.9923 15.6664 19.7435 15.8142 19.4796 15.9377C19.1227 16.1045 18.7481 16.2153 18.3629 16.2892C18.1176 16.337 17.8687 16.3677 17.619 16.3857C17.3586 16.4046 17.0983 16.4127 16.8379 16.4073C16.5341 16.401 16.2313 16.3812 15.9284 16.3496C15.6592 16.3217 15.3909 16.2847 15.1243 16.2397C14.7966 16.1838 14.4699 16.1171 14.1466 16.0405C13.6835 15.9305 13.2256 15.8016 12.7713 15.6601C12.7501 15.6538 12.7288 15.6448 12.7076 15.6376C12.7076 15.6159 12.7244 15.6132 12.7359 15.6069C13.184 15.3654 13.6224 15.1076 14.0492 14.8291C14.4548 14.565 14.8507 14.2856 15.2341 13.9872C15.5281 13.7583 15.815 13.5203 16.0922 13.2707C16.1976 13.176 16.3021 13.0796 16.404 12.9823C16.6696 12.729 16.9256 12.4649 17.1691 12.19C17.5207 11.7925 17.8475 11.3743 18.145 10.9326C18.4187 10.5252 18.6648 10.1025 18.8783 9.65904C19.1457 9.10382 19.3609 8.52877 19.5168 7.93118C19.6009 7.60941 19.6691 7.28493 19.7196 6.95684C19.7568 6.71799 19.7807 6.47733 19.8002 6.23578C19.8267 5.89147 19.8294 5.54626 19.8205 5.20105C19.8152 5.00726 19.8028 4.81438 19.7851 4.62149C19.7807 4.57192 19.7771 4.56831 19.7275 4.57282C19.5894 4.58544 19.4521 4.59986 19.314 4.61338C19.1661 4.6278 19.0182 4.64312 18.8703 4.65845C18.6958 4.67557 18.5205 4.6936 18.346 4.70892C18.315 4.71162 18.308 4.72605 18.3106 4.75399C18.3274 4.90631 18.3336 5.06044 18.3398 5.21367C18.3487 5.42818 18.3496 5.6427 18.339 5.85722C18.3345 5.94375 18.3301 6.02937 18.3248 6.1159C18.3097 6.34664 18.2823 6.57648 18.246 6.80452C18.1884 7.16595 18.1043 7.52198 17.9962 7.87079C17.8058 8.4837 17.5446 9.06326 17.2205 9.61487C16.9831 10.0187 16.7157 10.3999 16.4243 10.7641C16.1285 11.1336 15.8097 11.4806 15.4706 11.8087C14.9755 12.2882 14.4468 12.7263 13.888 13.1274C13.3159 13.5375 12.7208 13.9088 12.1036 14.2441C11.9123 14.3478 11.7184 14.4478 11.5235 14.5452C11.5023 14.556 11.481 14.5713 11.4553 14.5713C11.4412 14.5506 11.4465 14.5289 11.4465 14.5082C11.4465 11.5167 11.4465 8.52516 11.4483 5.53274C11.4483 4.53226 11.4483 3.53268 11.45 2.5322C11.4509 1.72821 11.4536 0.924226 11.4545 0.119336C11.4545 0.0950003 11.4615 0.0688617 11.4465 0.0454271C11.4288 0.0364137 11.4102 0.0400186 11.3916 0.0400186C10.9408 0.0400186 10.4901 0.0400186 10.0393 0.0400186C9.97111 0.0400186 9.97111 0.040019 9.96934 0.109422C9.96934 0.120238 9.96934 0.130152 9.96934 0.140968C9.95694 4.90541 9.96668 9.66895 9.96314 14.4334C9.96314 14.4541 9.96491 14.4758 9.96226 14.4965C9.9596 14.5172 9.94632 14.5181 9.93038 14.5118H9.92594Z" fill="#3CB989"/>
</svg>
