<svg width="13" height="13" viewBox="0 0 13 13" fill="none" xmlns="http://www.w3.org/2000/svg">
<path d="M5.41283 0.801167C5.7397 -0.0276252 6.91265 -0.0276245 7.23952 0.801168L8.39132 3.72158C8.49111 3.97462 8.69141 4.17491 8.94444 4.27471L11.8649 5.4265C12.6937 5.75338 12.6937 6.92632 11.8649 7.25319L8.94444 8.40499C8.69141 8.50478 8.49111 8.70508 8.39132 8.95811L7.23952 11.8785C6.91265 12.7073 5.7397 12.7073 5.41283 11.8785L4.26104 8.95811C4.16124 8.70508 3.96095 8.50478 3.70791 8.40499L0.787496 7.25319C-0.0412971 6.92632 -0.0412964 5.75338 0.787496 5.4265L3.70791 4.27471C3.96095 4.17491 4.16124 3.97462 4.26104 3.72158L5.41283 0.801167Z" fill="#F58549"/>
</svg>
