<svg xmlns="http://www.w3.org/2000/svg" width="296" height="348" viewBox="0 0 296 348" fill="none">
  <g filter="url(#filter0_f_164_47)">
    <path d="M136.554 201.762C133.964 201.066 131.429 200.201 128.883 199.338C121.281 196.754 113.818 193.79 106.522 190.391C99.9811 187.337 93.6149 183.969 87.4445 180.199C83.4149 177.731 79.4603 175.14 75.6504 172.339C68.4308 167.047 61.6591 161.209 55.5497 154.603C48.3543 146.826 42.2159 138.272 37.4229 128.73C35.0933 124.107 33.1089 119.325 31.495 114.391C30.3761 110.966 29.428 107.486 28.6507 103.951C27.9954 100.997 27.4917 98.0155 27.0598 95.0338C26.7296 92.7955 26.5063 90.5506 26.3412 88.2954C26.3012 87.7743 26.2698 87.7308 25.7373 87.776C22.3479 88.0325 18.9723 88.2989 15.5829 88.5554C12.9165 88.7576 10.2481 88.9478 7.5817 89.15C7.50012 89.1644 7.41657 89.1669 7.33298 89.1695C6.6257 89.2456 6.62768 89.2576 6.68269 90.0093C7.10162 95.4007 7.85847 100.732 8.90871 106.024C9.48399 108.931 10.1971 111.802 10.9685 114.662C11.8711 118.015 12.9328 121.315 14.1071 124.57C15.4117 128.171 16.8968 131.703 18.5253 135.161C20.896 140.17 23.5864 145.011 26.581 149.664C30.0487 155.055 33.8976 160.146 38.0851 164.968C42.5115 170.067 47.274 174.812 52.3226 179.26C55.0023 181.623 57.7495 183.887 60.5875 186.05C63.7985 188.502 67.0556 190.873 70.4112 193.116C76.8921 197.445 83.6019 201.354 90.5176 204.919C99.1144 209.34 107.958 213.165 116.998 216.514C119.225 217.335 121.489 218.088 123.734 218.87C123.938 218.944 124.17 218.965 124.332 219.145C124.361 219.459 124.077 219.485 123.913 219.575C120.43 221.408 116.909 223.162 113.351 224.836C109.115 226.827 104.819 228.681 100.466 230.41C96.8098 231.856 93.1215 233.185 89.3918 234.411C86.2636 235.432 83.1036 236.336 79.9279 237.217C79.0001 237.48 78.0526 237.697 77.1168 237.912C73.9382 238.635 70.7419 239.324 67.5231 239.808C63.9759 240.338 60.4066 240.737 56.8223 240.905C52.5946 241.102 48.3766 241.001 44.1835 240.479C37.5504 239.652 31.1975 237.855 25.3079 234.538C24.711 234.201 24.6642 234.21 24.3527 234.781C21.3941 240.144 18.422 245.497 15.4635 250.861C15.3366 251.104 15.239 251.379 14.9891 251.534L15.0455 251.868C15.3982 252.322 15.9167 252.549 16.4063 252.818C25.2485 257.626 34.7265 260.16 44.6519 261.079C49.5892 261.531 54.5377 261.551 59.4647 261.231C62.1351 261.053 64.7895 260.779 67.457 260.442C70.2294 260.085 72.9796 259.598 75.7142 259.089C78.5633 258.548 81.3725 257.841 84.1934 257.133C88.8121 255.983 93.3713 254.622 97.8769 253.087C108.035 249.63 117.899 245.426 127.522 240.651C132.217 238.32 136.82 235.798 141.405 233.241C142.37 232.702 142.372 232.714 142.626 233.787C143.681 238.255 144.598 242.759 145.688 247.221C146.973 252.484 148.303 257.726 149.703 262.956C151.743 270.553 153.979 278.104 156.339 285.608C158.714 293.195 161.282 300.723 163.986 308.203C166.748 315.808 169.654 323.35 172.775 330.805C174.181 334.155 175.575 337.506 177.106 340.809C177.279 341.196 177.408 341.603 177.775 341.858L178.264 341.771C178.324 341.416 178.645 341.396 178.889 341.279C182.546 339.477 186.204 337.687 189.86 335.885C191.599 335.024 193.338 334.163 195.077 333.302C195.62 333.034 195.618 333.022 195.374 332.501C193.154 327.674 191.11 322.755 189.125 317.825C187.159 312.941 185.25 308.035 183.488 303.078C182.387 299.969 181.22 296.896 180.141 293.784C178.919 290.242 177.708 286.698 176.588 283.126C175.879 280.844 175.122 278.571 174.411 276.277C173.761 274.206 173.146 272.129 172.531 270.052C171.802 267.589 171.076 265.139 170.383 262.67C169.686 260.177 168.998 257.671 168.334 255.16C167.548 252.216 166.786 249.269 166.036 246.319C165.596 244.567 165.19 242.808 164.785 241.05C163.965 237.474 163.156 233.896 162.348 230.317C162.254 229.904 162.172 229.489 162.113 229.069C162.02 228.521 162.061 228.477 162.604 228.565C164.098 228.816 165.593 229.067 167.099 229.316C173.999 230.44 180.922 231.277 187.886 231.861C192.949 232.278 198.014 232.56 203.083 232.656C207.851 232.745 212.628 232.673 217.4 232.429C221.375 232.229 225.328 231.897 229.284 231.442C233.488 230.967 237.661 230.302 241.793 229.398C245.808 228.514 249.798 227.476 253.722 226.191C258.965 224.476 264.047 222.372 268.921 219.753C276.237 215.816 282.787 210.823 288.42 204.593C288.704 204.285 288.974 203.967 289.245 203.649C289.697 203.127 289.706 203.113 289.196 202.65C287.894 201.481 286.569 200.315 285.255 199.148C282.038 196.304 278.821 193.459 275.604 190.615C275.561 190.573 275.52 190.543 275.477 190.502C274.773 189.89 274.785 189.888 274.182 190.584C271.602 193.571 268.658 196.107 265.461 198.356C261.138 201.394 256.456 203.734 251.552 205.61C248.431 206.814 245.225 207.799 241.979 208.62C238.595 209.478 235.187 210.192 231.748 210.727C227.737 211.352 223.707 211.796 219.651 212.084C216.046 212.342 212.432 212.479 208.824 212.504C204.387 212.528 199.938 212.408 195.513 212.148C189.172 211.773 182.859 211.135 176.564 210.321C176.271 210.287 175.971 210.218 175.675 210.172C175.627 209.886 175.842 209.811 175.979 209.7C181.336 205.46 186.528 201.027 191.523 196.347C196.27 191.908 200.854 187.288 205.233 182.447C208.59 178.733 211.834 174.915 214.923 170.966C216.099 169.468 217.258 167.949 218.381 166.423C221.311 162.453 224.088 158.362 226.678 154.157C230.416 148.079 233.781 141.784 236.709 135.247C239.4 129.218 241.694 123.052 243.511 116.687C245.789 108.718 247.336 100.608 248.051 92.3379C248.438 87.8844 248.61 83.4324 248.541 78.974C248.496 75.7271 248.273 72.4873 247.989 69.246C247.569 64.6286 246.832 60.0551 245.944 55.5084C245.441 52.9569 244.847 50.4338 244.182 47.9231C244.013 47.2775 243.958 47.2381 243.316 47.4133C241.526 47.9024 239.752 48.4132 237.964 48.9141C236.05 49.4497 234.138 49.9972 232.227 50.5447C229.969 51.1779 227.702 51.8252 225.44 52.4346C225.039 52.5427 224.978 52.75 225.075 53.1135C225.637 55.0896 226.063 57.1144 226.487 59.1272C227.083 61.9447 227.575 64.7809 227.914 67.6438C228.05 68.799 228.183 69.9422 228.306 71.0994C228.624 74.1873 228.777 77.2922 228.809 80.3939C228.859 85.3101 228.548 90.2167 227.906 95.0836C226.771 103.637 224.629 111.913 221.597 119.967C219.377 125.863 216.71 131.531 213.69 137.028C210.623 142.607 207.204 147.941 203.474 153.073C198.032 160.571 192.054 167.599 185.597 174.208C178.986 180.968 171.985 187.268 164.612 193.144C162.326 194.961 159.998 196.737 157.652 198.479C157.396 198.671 157.151 198.924 156.813 198.984C156.58 198.742 156.602 198.444 156.555 198.17C149.867 158.59 143.179 119.01 136.512 79.4145C134.275 66.1776 132.04 52.9526 129.827 39.7116C128.041 29.0722 126.279 18.4288 124.491 7.77755C124.436 7.45557 124.471 7.09321 124.221 6.81826C123.967 6.74029 123.731 6.83134 123.486 6.8747C117.554 7.92552 111.623 8.97635 105.691 10.0272C104.794 10.1861 104.794 10.1862 104.925 11.1085C104.95 11.2516 104.972 11.3828 104.996 11.5259C115.485 74.5912 126.263 137.593 136.868 200.638C136.914 200.912 136.986 201.194 136.997 201.475C137.009 201.755 136.836 201.798 136.612 201.752L136.554 201.762Z" fill="url(#paint0_linear_164_47)"/>
  </g>
  <defs>
    <filter id="filter0_f_164_47" x="0.661133" y="0.787766" width="294.92" height="347.07" filterUnits="userSpaceOnUse" color-interpolation-filters="sRGB">
      <feFlood flood-opacity="0" result="BackgroundImageFix"/>
      <feBlend mode="normal" in="SourceGraphic" in2="BackgroundImageFix" result="shape"/>
      <feGaussianBlur stdDeviation="3" result="effect1_foregroundBlur_164_47"/>
    </filter>
    <linearGradient id="paint0_linear_164_47" x1="115.277" y1="8.31919" x2="174.469" y2="342.443" gradientUnits="userSpaceOnUse">
      <stop stop-color="#46C393"/>
      <stop offset="1" stop-color="#46C393" stop-opacity="0"/>
    </linearGradient>
  </defs>
</svg>