<svg width="260" height="77" viewBox="0 0 260 77" fill="none" xmlns="http://www.w3.org/2000/svg">
<path d="M298.909 4.41938C299.275 4.0295 299.478 3.51339 299.473 2.9783C299.469 2.44322 299.259 1.93034 298.886 1.54633C298.507 1.17032 297.995 0.959352 297.461 0.959347C296.927 0.959352 296.415 1.17032 296.036 1.54632C285.364 14.8172 268.588 21.0821 252.045 22.6668C234.139 24.3713 216.308 20.78 198.768 17.5249C181.979 14.4181 164.855 11.5337 147.765 13.2666C132.248 14.8514 116.913 20.2669 106.037 31.8276C105.17 32.6941 104.412 33.6233 103.608 34.5981C103.474 34.7638 103.303 34.896 103.108 34.9842C102.914 35.0725 102.702 35.1144 102.488 35.1067C102.275 35.0989 102.066 35.0417 101.879 34.9396C101.691 34.8375 101.53 34.6933 101.408 34.5183C97.2921 29.0546 92.1273 24.4673 86.216 21.025C68.8636 10.6957 46.8196 9.66388 28.0705 16.6242C17.392 20.4852 7.8947 27.0446 0.502677 35.6641C-1.15618 37.6307 1.67699 40.4981 3.35295 38.5143C15.3583 24.2288 33.8052 16.3848 52.332 16.2138C61.5741 16.0636 70.7327 17.9841 79.1359 21.8345C87.1281 25.5855 94.7612 31.2917 99.4755 38.8792C99.6111 39.098 99.6815 39.351 99.6785 39.6085C99.6755 39.8659 99.5991 40.1172 99.4584 40.3328C93.9973 49.1344 91.1527 59.5379 92.9028 69.9072C93.1912 71.5771 93.6028 73.2233 94.1341 74.8325C94.5046 75.9669 95.9411 76.8562 97.0756 76.0752C106.043 69.9243 109.446 58.4035 107.456 48C106.952 45.4199 106.127 42.913 104.999 40.538C104.891 40.3129 104.845 40.0627 104.867 39.8139C104.889 39.565 104.978 39.3268 105.125 39.1243C105.655 38.4117 106.196 37.6991 106.766 37.0265C111.214 31.6705 116.717 27.2887 122.933 24.1547C130.096 20.6669 137.798 18.4194 145.713 17.5078C162.444 15.4043 179.266 17.9981 195.701 21.0137C213.161 24.2117 230.907 27.9911 248.767 26.9137C265.407 25.9047 282.634 20.7173 294.81 8.84873C296.264 7.4554 297.632 5.97629 298.909 4.41938ZM96.7677 68.0488C95.9417 60.7748 97.2405 53.4172 100.507 46.8656C100.628 46.608 100.824 46.3935 101.07 46.2506C101.316 46.1078 101.6 46.0436 101.883 46.0665C102.167 46.0895 102.436 46.1985 102.656 46.3791C102.876 46.5596 103.035 46.8029 103.112 47.0765C105.022 54.4017 103.91 62.867 99.2247 68.7842C99.0498 68.994 98.8171 69.1478 98.5556 69.2265C98.2941 69.3053 98.0152 69.3055 97.7536 69.2272C97.4919 69.1489 97.259 68.9955 97.0838 68.786C96.9085 68.5765 96.7986 68.3202 96.7677 68.0488Z" fill="#F87D24"/>
</svg>
