<svg width="13" height="13" viewBox="0 0 13 13" fill="none" xmlns="http://www.w3.org/2000/svg">
<path d="M5.64745 1.24135C5.97432 0.41256 7.14727 0.412561 7.47414 1.24135L8.62594 4.16177C8.72573 4.4148 8.92603 4.6151 9.17906 4.7149L12.0995 5.86669C12.9283 6.19356 12.9283 7.36651 12.0995 7.69338L9.17906 8.84517C8.92603 8.94497 8.72573 9.14526 8.62594 9.3983L7.47414 12.3187C7.14727 13.1475 5.97432 13.1475 5.64745 12.3187L4.49566 9.3983C4.39586 9.14526 4.19557 8.94497 3.94253 8.84517L1.02211 7.69338C0.193322 7.36651 0.193323 6.19356 1.02212 5.86669L3.94253 4.7149C4.19557 4.6151 4.39586 4.4148 4.49566 4.16177L5.64745 1.24135Z" fill="#002D15"/>
</svg>
